<?xml version="1.0" encoding="utf-8"?>
<!-- Generator: Adobe Illustrator 18.1.1, SVG Export Plug-In . SVG Version: 6.00 Build 0)  -->
<svg version="1.1" id="Layer_1_2_" xmlns="http://www.w3.org/2000/svg" xmlns:xlink="http://www.w3.org/1999/xlink" x="0px" y="0px"
	 viewBox="0 0 985.9 445.9" enable-background="new 0 0 985.9 445.9" xml:space="preserve">
<g id="Compound_Shape">
	<g>
		<rect x="323.6" y="264.2" fill-rule="evenodd" clip-rule="evenodd" fill="#F58029" width="30.1" height="173.5"/>
	</g>
</g>
<g id="Compound_Shape_1_">
	<g>
		<path fill-rule="evenodd" clip-rule="evenodd" fill="#F58029" d="M695.5,265.4h-30.9v104.1c0,32.2-17.5,43.4-45.9,43.4h-5.6
			c-28.4,0-45.9-11.2-45.9-43.4V265.4h-30.8l-0.2,104.1c0,48.2,34.5,72.4,77,72.4h5.6c42.5,0,77-24.2,77-72.4L695.5,265.4z"/>
	</g>
</g>
<g id="Compound_Shape_2_">
	<g>
		<polygon fill-rule="evenodd" clip-rule="evenodd" fill="#97979A" points="30.1,81.4 0,81.4 207.1,438.7 237.2,438.7 		"/>
	</g>
</g>
<g id="Compound_Shape_3_">
	<g>
		<path fill-rule="evenodd" clip-rule="evenodd" fill="#97979A" d="M425.1,79.3c0-43.4-36.8-78.7-82.1-78.7h-45.8h-30h-2.9v192.3
			h32.9V158H343c2.3,0,4.6-0.1,6.9-0.3l63.9,75.8h37.5l-70.9-84.1C406.9,136.2,425.1,109.8,425.1,79.3z M343,127.3h-45.8v-96H343
			c27.7,0,50.3,21.5,50.3,48C393.3,105.7,370.7,127.3,343,127.3z M523.3,62c-48.2,0-87.3,39.1-87.3,87.3c0,48.2,39.1,87.3,87.3,87.3
			c35.2,0,65.1-21.1,78.9-51h-33.5C558,199.5,542.2,209,523.3,209c-30.9,0-55.4-24.2-58.4-54.2h144.7c0.9-1.8,1.1-3.5,1.1-5.3
			C610.6,101.1,571.5,62,523.3,62z M467.6,129.9c8.1-23.2,29.7-40.1,55.7-40.1c26,0,47.5,16.9,55.7,40.1H467.6z M848.8,166.1V11
			h-30.2l0.1,155.1c0,48.2,33.3,72.4,74.5,72.4v-29C865.8,209.5,848.8,198.3,848.8,166.1z M768.8,86.4c-15.7-15.1-37-24.3-60.4-24.3
			c-48.2,0-87.3,39.1-87.3,87.3c0,48.2,39.1,87.3,87.3,87.3c23.2,0,44.5-9.7,60.1-24.4l-0.3,21.1h0.5v0.1h30V64h-30V86.4z
			 M708.4,209c-32.9,0-59.6-26.7-59.6-59.6c0-32.9,26.7-59.6,59.6-59.6c32.9,0,59.8,29.2,59.8,62.1C768.2,184.8,741.3,209,708.4,209
			z"/>
	</g>
</g>
<g id="Compound_Shape_4_">
	<g>
		<polygon fill-rule="evenodd" clip-rule="evenodd" fill="#F58029" points="264.3,208.1 264.3,385.8 42.5,0 6,0 257.3,438.7 
			297.1,438.7 297.1,208.1 		"/>
	</g>
</g>
<g id="Compound_Shape_copy">
	<g>
		<path fill="#F58029" d="M264.3,385.8L42.5,0H6l251.3,438.7h39.8V208.1h-32.8V385.8z M451.3,334.4h-19.2
			c-18.9,0-28.3-7.5-28.3-22.3c0-13.2,9.4-19.7,28.3-19.7h74.2v-27h-66.8c-43.2,0-64.9,15.4-64.9,46.2c0,33.2,21.7,49.8,65.2,49.8
			h18.8c24.2,0,36.2,8.2,36.2,24.7c0,17.1-12.1,25.7-36.2,25.7h-82.1v27h75.1c48.3,0,72.5-17.5,72.5-52.4
			C524.2,351.7,499.9,334.4,451.3,334.4z M858.4,291.7c-15.7-15-37-24.3-60.4-24.3c-48.2,0-87.3,39.1-87.3,87.3
			c0,48.2,39.1,87.3,87.3,87.3c23.2,0,44.5-9.6,60.1-24.4l-0.3,21.1h30.6V269.1h-30.1V291.7z M798,414.3
			c-32.9,0-59.6-26.7-59.6-59.6c0-32.9,26.7-59.6,59.6-59.6c32.9,0,59.8,29.2,59.8,62.1C857.8,390.1,830.9,414.3,798,414.3z
			 M941.5,372.8V209.7h-30.2l0.1,163.1c0,48.2,33.3,72.4,74.5,72.4v-29C958.5,416.2,941.5,405,941.5,372.8z"/>
	</g>
</g>
</svg>
